Coordinates
version=1
nRows=19
nColumns=24
inDegrees=yes

Units are S.I. units (second, meters, Newtons, ...)
Angles are in degrees.

endheader
time	pelvis_tilt	pelvis_list	pelvis_rotation	pelvis_tx	pelvis_ty	pelvis_tz	hip_flexion_r	hip_adduction_r	hip_rotation_r	knee_angle_r	ankle_angle_r	subtalar_angle_r	mtp_angle_r	hip_flexion_l	hip_adduction_l	hip_rotation_l	knee_angle_l	ankle_angle_l	subtalar_angle_l	mtp_angle_l	lumbar_extension	lumbar_bending	lumbar_rotation
      4.32000000	     -7.69135207	     -6.05742888	      4.75773606	     -1.57801847	      0.00095654	     -0.27435812	      9.97957862	     10.71011391	      3.00524881	     -9.67485717	      0.46083409	     -1.92236657	     12.91454701	     25.65827201	     -8.20990069	     -0.83834184	    -60.62786348	    -10.74783179	     -5.29082114	     23.08161421	      8.56590854	      5.84969784	      2.02264313
      4.32500000	     -7.71954086	     -5.86941779	      4.58265339	     -1.57333472	      0.00120845	     -0.27394324	      9.46080321	     10.57130468	      3.20267245	     -9.30153430	      0.62137819	     -1.82350199	     12.94278180	     26.23757479	     -7.93348478	     -1.00300774	    -60.07929608	    -10.26668155	     -5.16945302	     23.28191543	      8.49526308	      5.69367610	      2.29066548
      4.33000000	     -7.72178204	     -5.70274025	      4.36891641	     -1.56869423	      0.00142365	     -0.27347873	      8.92783516	     10.46265114	      3.40206008	     -8.94445056	      0.76826680	     -1.71128993	     12.97603891	     26.76823117	     -7.70539937	     -1.19748748	    -59.47667279	     -9.76525982	     -5.03005769	     23.48318284	      8.38499546	      5.56968608	      2.61595450
      4.33500000	     -7.67592479	     -5.53651126	      4.12234238	     -1.56407030	      0.00165338	     -0.27302351	      8.34701978	     10.35862084	      3.63870763	     -8.59720622	      0.89929227	     -1.60365570	     13.00038989	     27.21416048	     -7.49744834	     -1.42206862	    -58.80634934	     -9.25903582	     -4.87147906	     23.67785885	      8.21508163	      5.46632577	      2.98377907
      4.34000000	     -7.66194876	     -5.36935519	      3.92001567	     -1.55945972	      0.00178701	     -0.27262968	      7.80713896	     10.24083763	      3.84545414	     -8.25266840	      1.04647333	     -1.54159755	     13.01809630	     27.69380428	     -7.25639446	     -1.58881769	    -58.09083237	     -8.79184861	     -4.74564033	     23.81014260	      8.08604661	      5.34431440	      3.28548664
      4.34500000	     -7.69719151	     -5.21868963	      3.76456174	     -1.55488735	      0.00183215	     -0.27232747	      7.33047667	     10.12253803	      4.01261065	     -7.91077072	      1.17504342	     -1.48183447	     13.02942530	     28.23028262	     -6.98670114	     -1.66393496	    -57.33132026	     -8.38266491	     -4.65562577	     23.89416741	      8.01361031	      5.22466699	      3.52827937
      4.35000000	     -7.62337421	     -5.05674631	      3.48287140	     -1.55030369	      0.00192976	     -0.27185838	      6.74120117	     10.02362190	      4.29198016	     -7.59823352	      1.33846503	     -1.44493843	     13.02899816	     28.58546221	     -6.80980511	     -1.91053664	    -56.50230368	     -7.90153237	     -4.50138521	     23.95248776	      7.80853924	      5.13324265	      3.92277107
      4.35500000	     -7.64413114	     -4.90337657	      3.31420203	     -1.54574911	      0.00188765	     -0.27154722	      6.26317293	      9.90462309	      4.47453800	     -7.27949376	      1.49626725	     -1.44480453	     13.02183830	     29.06388985	     -6.55359285	     -1.99304260	    -55.63675581	     -7.51945527	     -4.40791590	     23.96302703	      7.72005085	      5.01141023	      4.18673372
      4.36000000	     -7.56815386	     -4.75150171	      3.01907641	     -1.54122693	      0.00194167	     -0.27113323	      5.69125813	      9.80611084	      4.79519224	     -6.99502923	      1.61645270	     -1.44490021	     12.96001643	     29.37366987	     -6.38317628	     -2.21274583	    -54.69605700	     -7.07050740	     -4.29674521	     23.87486009	      7.50135473	      4.93417068	      4.57767704
      4.36500000	     -7.53693018	     -4.60074498	      2.77340084	     -1.53669803	      0.00190795	     -0.27079008	      5.17533145	      9.69690858	      5.07778279	     -6.71802044	      1.75543882	     -1.49529613	     12.87546576	     29.72482708	     -6.17874740	     -2.35869432	    -53.71002207	     -6.66573584	     -4.19970992	     23.71196997	      7.34450779	      4.84109870	      4.90712955
      4.37000000	     -7.51002478	     -4.45815698	      2.51885588	     -1.53220695	      0.00183131	     -0.27043609	      4.67488936	      9.59479877	      5.37421083	     -6.45517329	      1.89789179	     -1.55890546	     12.76649570	     30.06530821	     -5.99311488	     -2.50576529	    -52.68280595	     -6.27812017	     -4.10344036	     23.47399963	      7.18602196	      4.75267871	      5.26360477
      4.37500000	     -7.48648661	     -4.31561656	      2.25434857	     -1.52776405	      0.00173147	     -0.27009615	      4.19967648	      9.49075713	      5.67668385	     -6.22784343	      2.03512316	     -1.65022293	     12.62077606	     30.38235814	     -5.80987427	     -2.64083757	    -51.59824166	     -5.89062703	     -4.01304312	     23.14401242	      7.02013213	      4.66957395	      5.62804503
      4.38000000	     -7.45106904	     -4.18329064	      2.02738692	     -1.52327203	      0.00160253	     -0.26978553	      3.70192029	      9.39644144	      5.98981235	     -5.98774564	      2.17145604	     -1.83368866	     12.31063381	     30.67251554	     -5.62903519	     -2.75127948	    -50.48816125	     -5.43986460	     -3.85172613	     22.52292912	      6.85600469	      4.58069933	      5.92567043
      4.38500000	     -7.49325599	     -4.05750629	      1.72566880	     -1.51886681	      0.00138171	     -0.26944471	      3.33441470	      9.30049561	      6.28751826	     -5.82368915	      2.35423800	     -1.83869016	     12.24151881	     31.01200466	     -5.48874989	     -2.89694359	    -49.29797069	     -5.16360856	     -3.82252883	     22.24079518	      6.75857841	      4.51640888	      6.31225369
      4.39000000	     -7.56390753	     -3.92038160	      1.50892386	     -1.51445901	      0.00110395	     -0.26918727	      3.01003335	      9.18573203	      6.48575539	     -5.66800658	      2.51429857	     -1.91045741	     12.19185664	     31.36409591	     -5.28904995	     -2.93337997	    -48.04062408	     -4.93360642	     -3.76564497	     22.00664927	      6.69869978	      4.41426328	      6.56873481
      4.39500000	     -7.48879938	     -3.79483524	      1.15901720	     -1.51004237	      0.00097838	     -0.26880811	      2.50240050	      9.09350890	      6.94122019	     -5.49061574	      2.63518635	     -2.06290130	     11.95168234	     31.50659324	     -5.20193575	     -3.16095717	    -46.75806715	     -4.62761497	     -3.75242610	     21.26237252	      6.46739550	      4.36317623	      7.03907061
      4.40000000	     -7.51001566	     -3.66251695	      0.89288079	     -1.50560703	      0.00070566	     -0.26853591	      2.12212060	      8.98366114	      7.28226899	     -5.34867940	      2.80216466	     -2.22509075	     11.69630809	     31.74421359	     -5.05494236	     -3.27918225	    -45.43650016	     -4.30948600	     -3.66120205	     20.44998239	      6.35294847	      4.28035329	      7.37511882
      4.40500000	     -7.55303098	     -3.55240625	      0.63875243	     -1.50118333	      0.00037886	     -0.26827466	      1.78093204	      8.89330982	      7.56969465	     -5.22750486	      2.97795890	     -2.32397188	     11.50282994	     31.98711665	     -4.92980534	     -3.36632218	    -44.06781878	     -4.06630571	     -3.60981185	     19.72336896	      6.26360462	      4.21093580	      7.68564792
      4.41000000	     -7.63495031	     -3.43880507	      0.42241403	     -1.49667754	     -0.00003389	     -0.26803727	      1.48018653	      8.79445287	      7.80626503	     -5.10500520	      3.16690033	     -2.40959549	     11.39839837	     32.24531319	     -4.79833121	     -3.45285288	    -42.64018744	     -3.89090343	     -3.59096170	     19.16702507	      6.23866636	      4.12118353	      7.90175113
